<svg width="566" height="467" viewBox="0 0 566 467" fill="none" xmlns="http://www.w3.org/2000/svg">
<path fill-rule="evenodd" clip-rule="evenodd" d="M495.703 31.6186C487.129 100.451 531.489 180.221 489.428 235.399C447.064 290.975 353.132 260.687 293.408 297.002C220.738 341.189 194.524 461.77 109.584 466.364C28.8132 470.732 -13.506 369.145 -75.2655 316.942C-137.947 263.96 -220.684 231.293 -256.091 157.273C-293.878 78.2801 -342.432 -44.2086 -274.433 -99.4182C-186.346 -170.937 -41.7227 -46.7039 59.1535 -98.6792C124.451 -132.323 53.7314 -282.395 123.761 -304.584C187.8 -324.874 195.424 -177.683 260.886 -162.598C356.125 -140.65 469.316 -269.878 544.611 -207.602C608.648 -154.637 505.971 -50.8151 495.703 31.6186Z" fill="#123297" fill-opacity="0.1"/>
</svg>
