<svg width="78" height="147" viewBox="0 0 78 147" fill="none" xmlns="http://www.w3.org/2000/svg">
<path fill-rule="evenodd" clip-rule="evenodd" d="M0 35.5645C0 15.9228 15.9228 0 35.5645 0C55.2063 0 71.129 15.9228 71.129 35.5645V86.9355H73.5C75.6824 86.9355 77.4516 88.7047 77.4516 90.8871C77.4516 93.0695 75.6824 94.8387 73.5 94.8387H71.129H60.0645V125.661C60.0645 127.844 58.2953 129.613 56.1129 129.613C53.9305 129.613 52.1613 127.844 52.1613 125.661V94.8387H45.8387V116.177C45.8387 118.36 44.0695 120.129 41.8871 120.129C39.7047 120.129 37.9355 118.36 37.9355 116.177V94.8387H31.6129L31.6129 143.048C31.6129 145.231 29.8437 147 27.6613 147C25.4789 147 23.7097 145.231 23.7097 143.048L23.7097 94.8387H18.9677V122.5C18.9677 124.682 17.1985 126.452 15.0161 126.452C12.8337 126.452 11.0645 124.682 11.0645 122.5V94.8387H10.2742C9.70332 94.8387 9.16073 94.7176 8.67067 94.4998C7.86327 94.3567 7.16643 94.1533 6.5235 93.8639C4.05815 92.7543 2.08435 90.7806 0.974786 88.3152C0 86.1493 0 83.3717 0 77.8164V35.5645ZM26.871 68.7581C26.871 72.6864 24.0403 75.871 20.5484 75.871C17.0565 75.871 14.2258 72.6864 14.2258 68.7581C14.2258 64.8297 17.0565 61.6452 20.5484 61.6452C24.0403 61.6452 26.871 64.8297 26.871 68.7581ZM58.4839 68.7581C58.4839 72.6864 55.6532 75.871 52.1613 75.871C48.6694 75.871 45.8387 72.6864 45.8387 68.7581C45.8387 64.8297 48.6694 61.6452 52.1613 61.6452C55.6532 61.6452 58.4839 64.8297 58.4839 68.7581Z" fill="#FF774A"/>
</svg>
